<svg xmlns="http://www.w3.org/2000/svg" xmlns:xlink="http://www.w3.org/1999/xlink" version="1.1" data-diagram-type="ACTIVITY" style="width:1444px;height:1595px;background:#FFFFFF;" width="1444px" height="1595px" viewBox="0 0 1444 1595" zoomAndPan="magnify" preserveAspectRatio="none" contentStyleType="text/css"><?plantuml 1.2026.8?><defs/><g font-family="sans-serif" lengthAdjust="spacing"><g class="title" data-source-line="1"><text x="574.863" y="33.132" fill="#000" font-size="14" textLength="292.544" font-weight="700" font-family="Arial">7.17 - Activity Diagram Mua hàng trực tuyến</text></g><rect x="20" y="53.989" width="1397.27" height="18.398" fill="#F5F5F5" style="stroke:#F5F5F5;stroke-width:1;"/><ellipse cx="309.14" cy="87.388" rx="10" ry="10" fill="#222" style="stroke:#222;stroke-width:1;"/><rect x="180.397" y="117.388" width="257.484" height="38.398" fill="#FFF" style="stroke:#000;stroke-width:0.5;" rx="12.5" ry="12.5"/><text x="190.397" y="142.396" fill="#000" font-size="16" textLength="237.484" font-family="Arial">Xem sản phẩm và chọn phân loại</text><rect x="173.28" y="175.786" width="271.719" height="38.398" fill="#FFF" style="stroke:#000;stroke-width:0.5;" rx="12.5" ry="12.5"/><text x="183.28" y="200.794" fill="#000" font-size="16" textLength="251.719" font-family="Arial">Thêm sản phẩm, cập nhật giỏ hàng</text><rect x="215.511" y="292.583" width="187.258" height="38.398" fill="#FFF" style="stroke:#000;stroke-width:0.5;" rx="12.5" ry="12.5"/><text x="225.511" y="317.591" fill="#000" font-size="16" textLength="167.258" font-family="Arial">Đăng nhập để đặt hàng</text><rect x="177.327" y="394.981" width="263.625" height="75.195" fill="#FFF" style="stroke:#000;stroke-width:0.5;" rx="12.5" ry="12.5"/><text x="187.327" y="419.989" fill="#000" font-size="16" textLength="243.625" font-family="Arial">Nhập hoặc chỉnh sửa người nhận,</text><text x="187.327" y="438.388" fill="#000" font-size="16" textLength="167.219" font-family="Arial">số điện thoại, địa chỉ và</text><text x="187.327" y="456.786" fill="#000" font-size="16" textLength="173.367" font-family="Arial">phương thức thanh toán</text><rect x="205.753" y="490.177" width="206.773" height="56.797" fill="#FFF" style="stroke:#000;stroke-width:0.5;" rx="12.5" ry="12.5"/><text x="215.753" y="515.185" fill="#000" font-size="16" textLength="186.773" font-family="Arial">Nhập mã giảm giá nếu có,</text><text x="215.753" y="533.583" fill="#000" font-size="16" textLength="134.336" font-family="Arial">Xác nhận đặt hàng</text><polygon points="309.14,350.981,321.14,362.981,309.14,374.981,297.14,362.981,309.14,350.981" fill="#FFF" style="stroke:#000;stroke-width:0.5;stroke-linejoin:miter;stroke-miterlimit:10;"/><polygon points="227.292,784.567,390.987,784.567,402.987,796.567,390.987,808.567,227.292,808.567,215.292,796.567,227.292,784.567" fill="#FFF" style="stroke:#000;stroke-width:0.5;stroke-linejoin:miter;stroke-miterlimit:10;"/><text x="313.14" y="823.575" fill="#000" font-size="16" textLength="46.266" font-family="Arial">Không</text><text x="227.292" y="802.376" fill="#000" font-size="16" textLength="163.695" font-family="Arial">Còn lỗi cần chỉnh sửa?</text><text x="402.987" y="793.177" fill="#000" font-size="16" textLength="20.453" font-family="Arial">Có</text><rect x="26" y="1074.56" width="205.93" height="56.797" fill="#FFF" style="stroke:#000;stroke-width:0.5;" rx="12.5" ry="12.5"/><text x="36" y="1099.567" fill="#000" font-size="16" textLength="102.102" font-family="Arial">Nhận mã đơn,</text><text x="36" y="1117.966" fill="#000" font-size="16" textLength="185.93" font-family="Arial">Thanh toán khi nhận hàng</text><rect x="403.24" y="1092.958" width="172.148" height="38.398" fill="#FFF" style="stroke:#000;stroke-width:0.5;" rx="12.5" ry="12.5"/><text x="413.24" y="1117.966" fill="#000" font-size="16" textLength="152.148" font-family="Arial">Thực hiện thanh toán</text><rect x="490.867" y="1348.95" width="225.484" height="56.797" fill="#FFF" style="stroke:#000;stroke-width:0.5;" rx="12.5" ry="12.5"/><text x="500.867" y="1373.958" fill="#000" font-size="16" textLength="205.484" font-family="Arial">Xem trạng thái, có thể thử lại</text><text x="500.867" y="1392.356" fill="#000" font-size="16" textLength="144.836" font-family="Arial">khi đơn còn hiệu lực</text><rect x="204.94" y="1493.747" width="208.398" height="38.398" fill="#FFF" style="stroke:#000;stroke-width:0.5;" rx="12.5" ry="12.5"/><text x="214.94" y="1518.755" fill="#000" font-size="16" textLength="188.398" font-family="Arial">Xem và theo dõi đơn hàng</text><ellipse cx="309.14" cy="1563.146" rx="11" ry="11" fill="none" style="stroke:#222;stroke-width:1;"/><ellipse cx="309.14" cy="1563.146" rx="6" ry="6" fill="#222" style="stroke:#222;stroke-width:1;"/><line x1="20" y1="53.989" x2="20" y2="1574.146" style="stroke:#000;stroke-width:1.5;"/><rect x="895.765" y="234.185" width="261.938" height="38.398" fill="#FFF" style="stroke:#000;stroke-width:0.5;" rx="12.5" ry="12.5"/><text x="905.765" y="259.192" fill="#000" font-size="16" textLength="241.938" font-family="Arial">Hiển thị giỏ hàng và giá sản phẩm</text><rect x="899.323" y="566.974" width="254.82" height="75.195" fill="#FFF" style="stroke:#000;stroke-width:0.5;" rx="12.5" ry="12.5"/><text x="909.323" y="591.981" fill="#000" font-size="16" textLength="234.82" font-family="Arial">Kiểm tra giỏ, thông tin giao hàng,</text><text x="909.323" y="610.38" fill="#000" font-size="16" textLength="169.867" font-family="Arial">tồn kho và mã giảm giá,</text><text x="909.323" y="628.778" fill="#000" font-size="16" textLength="97.844" font-family="Arial">Tính tổng tiền</text><polygon points="971.659,662.169,1081.808,662.169,1093.808,674.169,1081.808,686.169,971.659,686.169,959.659,674.169,971.659,662.169" fill="#FFF" style="stroke:#000;stroke-width:0.5;stroke-linejoin:miter;stroke-miterlimit:10;"/><text x="971.659" y="679.978" fill="#000" font-size="16" textLength="110.148" font-family="Arial">Dữ liệu hợp lệ?</text><text x="939.206" y="670.778" fill="#000" font-size="16" textLength="20.453" font-family="Arial">Có</text><text x="1093.808" y="670.778" fill="#000" font-size="16" textLength="46.266" font-family="Arial">Không</text><rect x="797.685" y="696.169" width="225.5" height="38.398" fill="#FFF" style="stroke:#000;stroke-width:0.5;" rx="12.5" ry="12.5"/><text x="807.685" y="721.177" fill="#000" font-size="16" textLength="205.5" font-family="Arial">Chấp nhận yêu cầu đặt hàng</text><rect x="1043.185" y="696.169" width="199.695" height="38.398" fill="#FFF" style="stroke:#000;stroke-width:0.5;" rx="12.5" ry="12.5"/><text x="1053.185" y="721.177" fill="#000" font-size="16" textLength="179.695" font-family="Arial">Hiển thị lỗi cần chỉnh sửa</text><polygon points="1026.733,740.567,1038.733,752.567,1026.733,764.567,1014.733,752.567,1026.733,740.567" fill="#FFF" style="stroke:#000;stroke-width:0.5;stroke-linejoin:miter;stroke-miterlimit:10;"/><rect x="893.519" y="843.567" width="266.43" height="93.594" fill="#FFF" style="stroke:#000;stroke-width:0.5;" rx="12.5" ry="12.5"/><text x="903.519" y="868.575" fill="#000" font-size="16" textLength="164.391" font-family="Arial">Tạo đơn và lưu chi tiết,</text><text x="903.519" y="886.974" fill="#000" font-size="16" textLength="143.219" font-family="Arial">Trừ tồn, ghi nhật ký,</text><text x="903.519" y="905.372" fill="#000" font-size="16" textLength="246.43" font-family="Arial">Ghi nhận sử dụng voucher nếu có,</text><text x="903.519" y="923.771" fill="#000" font-size="16" textLength="94.305" font-family="Arial">Xóa giỏ hàng</text><polygon points="961.808,957.161,1091.659,957.161,1103.659,969.161,1091.659,981.161,961.808,981.161,949.808,969.161,961.808,957.161" fill="#FFF" style="stroke:#000;stroke-width:0.5;stroke-linejoin:miter;stroke-miterlimit:10;"/><text x="961.808" y="974.97" fill="#000" font-size="16" textLength="129.852" font-family="Arial">Thanh toán COD?</text><text x="929.354" y="965.771" fill="#000" font-size="16" textLength="20.453" font-family="Arial">Có</text><text x="1103.659" y="965.771" fill="#000" font-size="16" textLength="46.266" font-family="Arial">Không</text><rect x="726.352" y="1001.161" width="240.414" height="38.398" fill="#FFF" style="stroke:#000;stroke-width:0.5;" rx="12.5" ry="12.5"/><text x="736.352" y="1026.169" fill="#000" font-size="16" textLength="220.414" font-family="Arial">Đặt trạng thái đơn đã xác nhận</text><rect x="1076.385" y="1001.161" width="261.047" height="56.797" fill="#FFF" style="stroke:#000;stroke-width:0.5;" rx="12.5" ry="12.5"/><text x="1086.385" y="1026.169" fill="#000" font-size="16" textLength="212.406" font-family="Arial">Đặt trạng thái chờ thanh toán,</text><text x="1086.385" y="1044.567" fill="#000" font-size="16" textLength="241.047" font-family="Arial">Hiển thị QR hoặc cổng thanh toán</text><rect x="1098.623" y="1151.356" width="216.57" height="56.797" fill="#FFF" style="stroke:#000;stroke-width:0.5;" rx="12.5" ry="12.5"/><text x="1108.623" y="1176.364" fill="#000" font-size="16" textLength="196.57" font-family="Arial">Kiểm tra kết quả thanh toán</text><text x="1108.623" y="1194.763" fill="#000" font-size="16" textLength="183.109" font-family="Arial">từ nguồn xác nhận hợp lệ</text><polygon points="1120.17,1228.153,1293.646,1228.153,1305.646,1240.153,1293.646,1252.153,1120.17,1252.153,1108.17,1240.153,1120.17,1228.153" fill="#FFF" style="stroke:#000;stroke-width:0.5;stroke-linejoin:miter;stroke-miterlimit:10;"/><text x="1120.17" y="1245.962" fill="#000" font-size="16" textLength="173.477" font-family="Arial">Thanh toán thành công?</text><text x="1087.717" y="1236.763" fill="#000" font-size="16" textLength="20.453" font-family="Arial">Có</text><text x="1305.646" y="1236.763" fill="#000" font-size="16" textLength="46.266" font-family="Arial">Không</text><rect x="996.766" y="1272.153" width="191.695" height="56.797" fill="#FFF" style="stroke:#000;stroke-width:0.5;" rx="12.5" ry="12.5"/><text x="1006.766" y="1297.161" fill="#000" font-size="16" textLength="171.695" font-family="Arial">Cập nhật đã thanh toán,</text><text x="1006.766" y="1315.56" fill="#000" font-size="16" textLength="149.281" font-family="Arial">Ghi lịch sử đơn hàng</text><rect x="1230.359" y="1272.153" width="181.688" height="56.797" fill="#FFF" style="stroke:#000;stroke-width:0.5;" rx="12.5" ry="12.5"/><text x="1240.359" y="1297.161" fill="#000" font-size="16" textLength="161.688" font-family="Arial">Hiển thị trạng thái chờ,</text><text x="1240.359" y="1315.56" fill="#000" font-size="16" textLength="149.453" font-family="Arial">thất bại hoặc hết hạn</text><polygon points="1206.908,1415.747,1218.908,1427.747,1206.908,1439.747,1194.908,1427.747,1206.908,1415.747" fill="#FFF" style="stroke:#000;stroke-width:0.5;stroke-linejoin:miter;stroke-miterlimit:10;"/><polygon points="1026.733,1449.747,1038.733,1461.747,1026.733,1473.747,1014.733,1461.747,1026.733,1449.747" fill="#FFF" style="stroke:#000;stroke-width:0.5;stroke-linejoin:miter;stroke-miterlimit:10;"/><line x1="720.352" y1="53.989" x2="720.352" y2="1574.146" style="stroke:#000;stroke-width:1.5;"/><line x1="1416.047" y1="53.989" x2="1416.047" y2="1574.146" style="stroke:#000;stroke-width:1.5;"/><line x1="309.14" y1="97.388" x2="309.14" y2="117.388" style="stroke:#000;stroke-width:1;"/><polygon points="305.14,107.388,309.14,117.388,313.14,107.388,309.14,111.388" fill="#000" style="stroke:#000;stroke-width:1;stroke-linejoin:miter;stroke-miterlimit:10;"/><line x1="309.14" y1="155.786" x2="309.14" y2="175.786" style="stroke:#000;stroke-width:1;"/><polygon points="305.14,165.786,309.14,175.786,313.14,165.786,309.14,169.786" fill="#000" style="stroke:#000;stroke-width:1;stroke-linejoin:miter;stroke-miterlimit:10;"/><line x1="309.14" y1="470.177" x2="309.14" y2="490.177" style="stroke:#000;stroke-width:1;"/><polygon points="305.14,480.177,309.14,490.177,313.14,480.177,309.14,484.177" fill="#000" style="stroke:#000;stroke-width:1;stroke-linejoin:miter;stroke-miterlimit:10;"/><line x1="309.14" y1="374.981" x2="309.14" y2="394.981" style="stroke:#000;stroke-width:1;"/><polygon points="305.14,384.981,309.14,394.981,313.14,384.981,309.14,388.981" fill="#000" style="stroke:#000;stroke-width:1;stroke-linejoin:miter;stroke-miterlimit:10;"/><line x1="215.292" y1="796.567" x2="58.091" y2="796.567" style="stroke:#000;stroke-width:1;"/><polygon points="54.091,582.274,58.091,572.274,62.091,582.274,58.091,578.274" fill="#000" style="stroke:#000;stroke-width:1;stroke-linejoin:miter;stroke-miterlimit:10;"/><line x1="58.091" y1="362.981" x2="58.091" y2="796.567" style="stroke:#000;stroke-width:1;"/><line x1="58.091" y1="362.981" x2="297.14" y2="362.981" style="stroke:#000;stroke-width:1;"/><polygon points="287.14,358.981,297.14,362.981,287.14,366.981,291.14,362.981" fill="#000" style="stroke:#000;stroke-width:1;stroke-linejoin:miter;stroke-miterlimit:10;"/><line x1="309.14" y1="330.981" x2="309.14" y2="350.981" style="stroke:#000;stroke-width:1;"/><polygon points="305.14,340.981,309.14,350.981,313.14,340.981,309.14,344.981" fill="#000" style="stroke:#000;stroke-width:1;stroke-linejoin:miter;stroke-miterlimit:10;"/><line x1="309.14" y1="1532.146" x2="309.14" y2="1552.146" style="stroke:#000;stroke-width:1;"/><polygon points="305.14,1542.146,309.14,1552.146,313.14,1542.146,309.14,1546.146" fill="#000" style="stroke:#000;stroke-width:1;stroke-linejoin:miter;stroke-miterlimit:10;"/><line x1="959.659" y1="674.169" x2="910.435" y2="674.169" style="stroke:#000;stroke-width:1;"/><line x1="910.435" y1="674.169" x2="910.435" y2="696.169" style="stroke:#000;stroke-width:1;"/><polygon points="906.435,686.169,910.435,696.169,914.435,686.169,910.435,690.169" fill="#000" style="stroke:#000;stroke-width:1;stroke-linejoin:miter;stroke-miterlimit:10;"/><line x1="1093.808" y1="674.169" x2="1143.032" y2="674.169" style="stroke:#000;stroke-width:1;"/><line x1="1143.032" y1="674.169" x2="1143.032" y2="696.169" style="stroke:#000;stroke-width:1;"/><polygon points="1139.032,686.169,1143.032,696.169,1147.032,686.169,1143.032,690.169" fill="#000" style="stroke:#000;stroke-width:1;stroke-linejoin:miter;stroke-miterlimit:10;"/><line x1="910.435" y1="734.567" x2="910.435" y2="752.567" style="stroke:#000;stroke-width:1;"/><line x1="910.435" y1="752.567" x2="1014.733" y2="752.567" style="stroke:#000;stroke-width:1;"/><polygon points="1004.733,748.567,1014.733,752.567,1004.733,756.567,1008.733,752.567" fill="#000" style="stroke:#000;stroke-width:1;stroke-linejoin:miter;stroke-miterlimit:10;"/><line x1="1143.032" y1="734.567" x2="1143.032" y2="752.567" style="stroke:#000;stroke-width:1;"/><line x1="1143.032" y1="752.567" x2="1038.733" y2="752.567" style="stroke:#000;stroke-width:1;"/><polygon points="1048.733,748.567,1038.733,752.567,1048.733,756.567,1044.733,752.567" fill="#000" style="stroke:#000;stroke-width:1;stroke-linejoin:miter;stroke-miterlimit:10;"/><line x1="1026.733" y1="642.169" x2="1026.733" y2="662.169" style="stroke:#000;stroke-width:1;"/><polygon points="1022.733,652.169,1026.733,662.169,1030.733,652.169,1026.733,656.169" fill="#000" style="stroke:#000;stroke-width:1;stroke-linejoin:miter;stroke-miterlimit:10;"/><line x1="1108.17" y1="1240.153" x2="1092.613" y2="1240.153" style="stroke:#000;stroke-width:1;"/><line x1="1092.613" y1="1240.153" x2="1092.613" y2="1272.153" style="stroke:#000;stroke-width:1;"/><polygon points="1088.613,1262.153,1092.613,1272.153,1096.613,1262.153,1092.613,1266.153" fill="#000" style="stroke:#000;stroke-width:1;stroke-linejoin:miter;stroke-miterlimit:10;"/><line x1="1305.646" y1="1240.153" x2="1321.203" y2="1240.153" style="stroke:#000;stroke-width:1;"/><line x1="1321.203" y1="1240.153" x2="1321.203" y2="1272.153" style="stroke:#000;stroke-width:1;"/><polygon points="1317.203,1262.153,1321.203,1272.153,1325.203,1262.153,1321.203,1266.153" fill="#000" style="stroke:#000;stroke-width:1;stroke-linejoin:miter;stroke-miterlimit:10;"/><line x1="1092.613" y1="1328.95" x2="1092.613" y2="1427.747" style="stroke:#000;stroke-width:1;"/><line x1="1092.613" y1="1427.747" x2="1194.908" y2="1427.747" style="stroke:#000;stroke-width:1;"/><polygon points="1184.908,1423.747,1194.908,1427.747,1184.908,1431.747,1188.908,1427.747" fill="#000" style="stroke:#000;stroke-width:1;stroke-linejoin:miter;stroke-miterlimit:10;"/><line x1="1206.908" y1="1208.153" x2="1206.908" y2="1228.153" style="stroke:#000;stroke-width:1;"/><polygon points="1202.908,1218.153,1206.908,1228.153,1210.908,1218.153,1206.908,1222.153" fill="#000" style="stroke:#000;stroke-width:1;stroke-linejoin:miter;stroke-miterlimit:10;"/><line x1="949.808" y1="969.161" x2="846.559" y2="969.161" style="stroke:#000;stroke-width:1;"/><line x1="846.559" y1="969.161" x2="846.559" y2="1001.161" style="stroke:#000;stroke-width:1;"/><polygon points="842.559,991.161,846.559,1001.161,850.559,991.161,846.559,995.161" fill="#000" style="stroke:#000;stroke-width:1;stroke-linejoin:miter;stroke-miterlimit:10;"/><line x1="1103.659" y1="969.161" x2="1206.908" y2="969.161" style="stroke:#000;stroke-width:1;"/><line x1="1206.908" y1="969.161" x2="1206.908" y2="1001.161" style="stroke:#000;stroke-width:1;"/><polygon points="1202.908,991.161,1206.908,1001.161,1210.908,991.161,1206.908,995.161" fill="#000" style="stroke:#000;stroke-width:1;stroke-linejoin:miter;stroke-miterlimit:10;"/><line x1="1206.908" y1="1439.747" x2="1206.908" y2="1461.747" style="stroke:#000;stroke-width:1;"/><line x1="1206.908" y1="1461.747" x2="1038.733" y2="1461.747" style="stroke:#000;stroke-width:1;"/><polygon points="1048.733,1457.747,1038.733,1461.747,1048.733,1465.747,1044.733,1461.747" fill="#000" style="stroke:#000;stroke-width:1;stroke-linejoin:miter;stroke-miterlimit:10;"/><line x1="1026.733" y1="937.161" x2="1026.733" y2="957.161" style="stroke:#000;stroke-width:1;"/><polygon points="1022.733,947.161,1026.733,957.161,1030.733,947.161,1026.733,951.161" fill="#000" style="stroke:#000;stroke-width:1;stroke-linejoin:miter;stroke-miterlimit:10;"/><line x1="309.14" y1="214.185" x2="309.14" y2="219.185" style="stroke:#000;stroke-width:1;"/><line x1="309.14" y1="219.185" x2="1026.733" y2="219.185" style="stroke:#000;stroke-width:1;"/><line x1="1026.733" y1="219.185" x2="1026.733" y2="234.185" style="stroke:#000;stroke-width:1;"/><polygon points="1022.733,224.185,1026.733,234.185,1030.733,224.185,1026.733,228.185" fill="#000" style="stroke:#000;stroke-width:1;stroke-linejoin:miter;stroke-miterlimit:10;"/><line x1="1026.733" y1="272.583" x2="1026.733" y2="277.583" style="stroke:#000;stroke-width:1;"/><line x1="1026.733" y1="277.583" x2="309.14" y2="277.583" style="stroke:#000;stroke-width:1;"/><line x1="309.14" y1="277.583" x2="309.14" y2="292.583" style="stroke:#000;stroke-width:1;"/><polygon points="305.14,282.583,309.14,292.583,313.14,282.583,309.14,286.583" fill="#000" style="stroke:#000;stroke-width:1;stroke-linejoin:miter;stroke-miterlimit:10;"/><line x1="309.14" y1="546.974" x2="309.14" y2="551.974" style="stroke:#000;stroke-width:1;"/><line x1="309.14" y1="551.974" x2="1026.733" y2="551.974" style="stroke:#000;stroke-width:1;"/><line x1="1026.733" y1="551.974" x2="1026.733" y2="566.974" style="stroke:#000;stroke-width:1;"/><polygon points="1022.733,556.974,1026.733,566.974,1030.733,556.974,1026.733,560.974" fill="#000" style="stroke:#000;stroke-width:1;stroke-linejoin:miter;stroke-miterlimit:10;"/><line x1="1026.733" y1="764.567" x2="1026.733" y2="769.567" style="stroke:#000;stroke-width:1;"/><line x1="1026.733" y1="769.567" x2="309.14" y2="769.567" style="stroke:#000;stroke-width:1;"/><line x1="309.14" y1="769.567" x2="309.14" y2="784.567" style="stroke:#000;stroke-width:1;"/><polygon points="305.14,774.567,309.14,784.567,313.14,774.567,309.14,778.567" fill="#000" style="stroke:#000;stroke-width:1;stroke-linejoin:miter;stroke-miterlimit:10;"/><line x1="309.14" y1="808.567" x2="309.14" y2="826.067" style="stroke:#000;stroke-width:1;"/><line x1="309.14" y1="826.067" x2="1026.733" y2="826.067" style="stroke:#000;stroke-width:1;"/><line x1="1026.733" y1="826.067" x2="1026.733" y2="843.567" style="stroke:#000;stroke-width:1;"/><polygon points="1022.733,833.567,1026.733,843.567,1030.733,833.567,1026.733,837.567" fill="#000" style="stroke:#000;stroke-width:1;stroke-linejoin:miter;stroke-miterlimit:10;"/><line x1="846.559" y1="1039.56" x2="846.559" y2="1057.06" style="stroke:#000;stroke-width:1;"/><line x1="846.559" y1="1057.06" x2="128.965" y2="1057.06" style="stroke:#000;stroke-width:1;"/><line x1="128.965" y1="1057.06" x2="128.965" y2="1074.56" style="stroke:#000;stroke-width:1;"/><polygon points="124.965,1064.56,128.965,1074.56,132.965,1064.56,128.965,1068.56" fill="#000" style="stroke:#000;stroke-width:1;stroke-linejoin:miter;stroke-miterlimit:10;"/><line x1="1206.908" y1="1057.958" x2="1206.908" y2="1075.458" style="stroke:#000;stroke-width:1;"/><line x1="1206.908" y1="1075.458" x2="489.314" y2="1075.458" style="stroke:#000;stroke-width:1;"/><line x1="489.314" y1="1075.458" x2="489.314" y2="1092.958" style="stroke:#000;stroke-width:1;"/><polygon points="485.314,1082.958,489.314,1092.958,493.314,1082.958,489.314,1086.958" fill="#000" style="stroke:#000;stroke-width:1;stroke-linejoin:miter;stroke-miterlimit:10;"/><line x1="489.314" y1="1131.356" x2="489.314" y2="1136.356" style="stroke:#000;stroke-width:1;"/><line x1="489.314" y1="1136.356" x2="1206.908" y2="1136.356" style="stroke:#000;stroke-width:1;"/><line x1="1206.908" y1="1136.356" x2="1206.908" y2="1151.356" style="stroke:#000;stroke-width:1;"/><polygon points="1202.908,1141.356,1206.908,1151.356,1210.908,1141.356,1206.908,1145.356" fill="#000" style="stroke:#000;stroke-width:1;stroke-linejoin:miter;stroke-miterlimit:10;"/><line x1="1321.203" y1="1328.95" x2="1321.203" y2="1333.95" style="stroke:#000;stroke-width:1;"/><line x1="1321.203" y1="1333.95" x2="603.609" y2="1333.95" style="stroke:#000;stroke-width:1;"/><line x1="603.609" y1="1333.95" x2="603.609" y2="1348.95" style="stroke:#000;stroke-width:1;"/><polygon points="599.609,1338.95,603.609,1348.95,607.609,1338.95,603.609,1342.95" fill="#000" style="stroke:#000;stroke-width:1;stroke-linejoin:miter;stroke-miterlimit:10;"/><line x1="603.609" y1="1405.747" x2="603.609" y2="1409.747" style="stroke:#000;stroke-width:1;"/><line x1="603.609" y1="1409.747" x2="1236.908" y2="1409.747" style="stroke:#000;stroke-width:1;"/><line x1="1236.908" y1="1409.747" x2="1236.908" y2="1427.747" style="stroke:#000;stroke-width:1;"/><line x1="1236.908" y1="1427.747" x2="1218.908" y2="1427.747" style="stroke:#000;stroke-width:1;"/><polygon points="1228.908,1423.747,1218.908,1427.747,1228.908,1431.747,1224.908,1427.747" fill="#000" style="stroke:#000;stroke-width:1;stroke-linejoin:miter;stroke-miterlimit:10;"/><line x1="128.965" y1="1131.356" x2="128.965" y2="1461.747" style="stroke:#000;stroke-width:1;"/><line x1="128.965" y1="1461.747" x2="1014.733" y2="1461.747" style="stroke:#000;stroke-width:1;"/><polygon points="1004.733,1457.747,1014.733,1461.747,1004.733,1465.747,1008.733,1461.747" fill="#000" style="stroke:#000;stroke-width:1;stroke-linejoin:miter;stroke-miterlimit:10;"/><line x1="1026.733" y1="1473.747" x2="1026.733" y2="1478.747" style="stroke:#000;stroke-width:1;"/><line x1="1026.733" y1="1478.747" x2="309.14" y2="1478.747" style="stroke:#000;stroke-width:1;"/><line x1="309.14" y1="1478.747" x2="309.14" y2="1493.747" style="stroke:#000;stroke-width:1;"/><polygon points="305.14,1483.747,309.14,1493.747,313.14,1483.747,309.14,1487.747" fill="#000" style="stroke:#000;stroke-width:1;stroke-linejoin:miter;stroke-miterlimit:10;"/><text x="327.551" y="68.997" fill="#000" font-size="16" textLength="85.25" font-family="Arial">Người dùng</text><text x="1035.73" y="68.997" fill="#000" font-size="16" textLength="64.938" font-family="Arial">Hệ thống</text><?plantuml-src ZLL1JzH05BxlhtX7I5OJBfBi7Wn2b8I8KJQH0vUXMtOcsyxKxXH4yM0u44EC4cCyaR0IOe1iHD4GsnWE9VoF_XFVcsxTjbkCbmRcpVk-xttllLajj6F3zEsfQRW5CvOMwq9lmfnW7P-vy31WmEC3sG7j9z4t2tImcOINijRh2kankk8ggIpkAzV6Eu6TY_GuQwiDWSbhpEdb8wlCwdPy5SZsh7AK3njSw7oyRQ-nmD7tbTIB385dVC6SwlYIU673r9rSSCRtrKQAUyz1ebo8PVMzh07SAubuQaJWkVBRjfy70F83wspVb9A5np9VvUtO4Ax3f9sILv2qg1ML54kkwje8LjjQx5oV9T6-W7RyItQsQZtDV5rhBDk8duI74ZoUXCSkhCS7OF4aUaidyMS9Zah2lcZM6YqUdnGlry5Ame474lyRQEY897gNThrPsvfFeXtGYBH7T8rv36vBSx2Rlsa8EoBk5v2Ruu8RL--ljl6-8VFWQW_nw1jUw8pJjpsRQJIaiPXUugZzmZBrl94S6Q810va16oHPNv5uleTGA6g759g2wuPXbwN9f795UlpwxBfFCurdnpZJd26gLd5VDdEiRdn85OQ7RbgOnC4Fm8hFaMevxbj3uf9uW99b2BX0fhcu7Yorh8xH-0S9419Fc4gJ4LSdqGS9NQwCdoK566_50vAQH1zDTXAzDfB56apC9T5NSAZu093xq0C7_xuxYLosX8dP-7mIRwAQMPHzv6NgD-EJWFh_9HWhnCQbXOa58tMOMsW_udyI9bSMUsEIPLkiaHlb0KYxIokFxmxA-Yvl1aBrefTg1wdqI4nvB5lOQuK5O5kDSyxr6LR51NaKNcfo3j-lKp3-rg73HJRjtVWtHXza1z8GGpk9ZcYeLM1nso-r_fmLTuJSRurc26OVpPLjnwattk8h6gQJ5_V5KE_L7hRv-MYWcbMkPMCfpL2OH2egnzeTbJ3KLUxV-61Mgg8ExEUN0eaAVN_yvEz63WUnk41LublS_7pmR3cB2V_Qc2ur49u5k0RvFBChf_WA16PbSlxbfZ_RZRnFcjpXs4nqfMexya-XQKtH2PeKXDwrqX4Tzl2_TwR2QbfxMaaDg_HYPTvoKpUdwqq3L64hejFBNm2jqvmQjctp7Q1SX5sHD22fMekMZgTFXKDz6Iri-Xr_jOc65WljKdZuKnGBxsdb_G40?></g></svg>