<svg xmlns="http://www.w3.org/2000/svg" xmlns:xlink="http://www.w3.org/1999/xlink" version="1.1" data-diagram-type="DESCRIPTION" style="width:679px;height:362px;background:#FFFFFF;" width="679px" height="362px" viewBox="0 0 679 362" zoomAndPan="magnify" preserveAspectRatio="none" contentStyleType="text/css"><?plantuml 1.2026.8?><defs/><g font-family="sans-serif" lengthAdjust="spacing"><g class="title" data-source-line="1"><text x="164.06" y="23.132" fill="#000" font-size="14" textLength="343.95" font-weight="700" font-family="Arial">7.19 - Use Case Phân công và thực hiện ca làm việc</text></g><!--cluster HỆ THỐNG GYMIFY--><g class="cluster" data-qualified-name="H. TH.NG GYMIFY" id="ent0003" data-source-line="27"><rect x="144" y="62.599" width="292" height="286" fill="none" style="stroke:#181818;stroke-width:1;" rx="2.5" ry="2.5"/><text x="214.887" y="79.606" fill="#000" font-size="16" textLength="150.227" font-weight="700" font-family="Arial">HỆ THỐNG GYMIFY</text></g><!--entity UC53--><g class="entity" data-qualified-name="H. TH.NG GYMIFY.UC53" id="ent0004" data-source-line="28"><ellipse cx="289.786" cy="303.456" rx="129.786" ry="28.357" fill="#F1F1F1" style="stroke:#181818;stroke-width:0.5;"/><text x="266.669" y="293.422" fill="#000" font-size="16" textLength="46.234" font-family="Arial">UC-53</text><text x="177.735" y="311.821" fill="#000" font-size="16" textLength="224.102" font-family="Arial">Phân công và xem lịch làm việc</text></g><!--entity UC54--><g class="entity" data-qualified-name="H. TH.NG GYMIFY.UC54" id="ent0005" data-source-line="29"><ellipse cx="290.03" cy="213.567" rx="75.03" ry="26.469" fill="#F1F1F1" style="stroke:#181818;stroke-width:0.5;"/><text x="266.913" y="206.239" fill="#000" font-size="16" textLength="46.234" font-family="Arial">UC-54</text><text x="233.562" y="224.637" fill="#000" font-size="16" textLength="112.938" font-family="Arial">Vào ca làm việc</text></g><!--entity UC55--><g class="entity" data-qualified-name="H. TH.NG GYMIFY.UC55" id="ent0006" data-source-line="30"><ellipse cx="289.921" cy="125.837" rx="102.421" ry="26.238" fill="#F1F1F1" style="stroke:#181818;stroke-width:0.5;"/><text x="266.804" y="118.134" fill="#000" font-size="16" textLength="46.234" font-family="Arial">UC-55</text><text x="211.206" y="136.532" fill="#000" font-size="16" textLength="157.43" font-family="Arial">Kết ca và đối soát tiền</text></g><!--entity A0--><g class="entity" data-qualified-name="A0" id="ent0001" data-source-line="25"><ellipse cx="51.523" cy="100.099" rx="8" ry="8" fill="#F1F1F1" style="stroke:#181818;stroke-width:0.5;"/><path d="M51.523,108.099 L51.523,135.099 M38.523,116.099 L64.523,116.099 M51.523,135.099 L38.523,150.099 M51.523,135.099 L64.523,150.099" style="stroke:#181818;stroke-width:0.5;" fill="none"/><text x="15.5" y="166.606" fill="#000" font-size="16" textLength="72.047" font-family="Arial">Nhân viên</text></g><!--entity A1--><g class="entity" data-qualified-name="A1" id="ent0002" data-source-line="26"><ellipse cx="51.355" cy="218.099" rx="8" ry="8" fill="#F1F1F1" style="stroke:#181818;stroke-width:0.5;"/><path d="M51.355,226.099 L51.355,253.099 M38.355,234.099 L64.355,234.099 M51.355,253.099 L38.355,268.099 M51.355,253.099 L64.355,268.099" style="stroke:#181818;stroke-width:0.5;" fill="none"/><text x="6" y="284.606" fill="#000" font-size="16" textLength="90.711" font-family="Arial">Quản trị viên</text></g><!--entity CheckSchedule--><g class="entity" data-qualified-name="CheckSchedule" id="ent0012" data-source-line="37"><ellipse cx="608.035" cy="277.099" rx="8" ry="8" fill="#F1F1F1" style="stroke:#181818;stroke-width:0.5;"/><path d="M608.035,285.099 L608.035,312.099 M595.035,293.099 L621.035,293.099 M608.035,312.099 L595.035,327.099 M608.035,312.099 L621.035,327.099" style="stroke:#181818;stroke-width:0.5;" fill="none"/><text x="552" y="343.606" fill="#000" font-size="16" textLength="112.07" font-family="Arial">CheckSchedule</text></g><!--entity CheckShift--><g class="entity" data-qualified-name="CheckShift" id="ent0014" data-source-line="38"><ellipse cx="608.184" cy="164.099" rx="8" ry="8" fill="#F1F1F1" style="stroke:#181818;stroke-width:0.5;"/><path d="M608.184,172.099 L608.184,199.099 M595.184,180.099 L621.184,180.099 M608.184,199.099 L595.184,214.099 M608.184,199.099 L621.184,214.099" style="stroke:#181818;stroke-width:0.5;" fill="none"/><text x="569.5" y="230.606" fill="#000" font-size="16" textLength="77.367" font-family="Arial">CheckShift</text></g><!--entity Reconcile--><g class="entity" data-qualified-name="Reconcile" id="ent0017" data-source-line="40"><ellipse cx="608.129" cy="51.099" rx="8" ry="8" fill="#F1F1F1" style="stroke:#181818;stroke-width:0.5;"/><path d="M608.129,59.099 L608.129,86.099 M595.129,67.099 L621.129,67.099 M608.129,86.099 L595.129,101.099 M608.129,86.099 L621.129,101.099" style="stroke:#181818;stroke-width:0.5;" fill="none"/><text x="573" y="117.606" fill="#000" font-size="16" textLength="70.258" font-family="Arial">Reconcile</text></g><!--link A1 to UC53--><g class="link" data-entity-1="ent0002" data-entity-2="ent0004" id="lnk7" data-source-line="32" data-link-type="association"><path d="M97.26,259.009 C126.19,265.739 164.83,274.719 199.85,282.869" style="stroke:#000;stroke-width:1;" fill="none" id="A1-UC53"/></g><!--link A0 to UC54--><g class="link" data-entity-1="ent0001" data-entity-2="ent0005" id="lnk8" data-source-line="33" data-link-type="association"><path d="M87.79,147.999 C102.5,154.889 119.88,162.599 136,168.599 C166.23,179.859 200.63,190.189 229.15,198.109" style="stroke:#000;stroke-width:1;" fill="none" id="A0-UC54"/></g><!--link A1 to UC54--><g class="link" data-entity-1="ent0002" data-entity-2="ent0005" id="lnk9" data-source-line="34" data-link-type="association"><path d="M97.26,241.979 C131.95,236.839 180.6,229.639 220.22,223.779" style="stroke:#000;stroke-width:1;" fill="none" id="A1-UC54"/></g><!--link A0 to UC55--><g class="link" data-entity-1="ent0001" data-entity-2="ent0006" id="lnk10" data-source-line="35" data-link-type="association"><path d="M87.65,129.859 C114.16,129.299 151.93,128.499 187.61,127.739" style="stroke:#000;stroke-width:1;" fill="none" id="A0-UC55"/></g><!--link A1 to UC55--><g class="link" data-entity-1="ent0002" data-entity-2="ent0006" id="lnk11" data-source-line="36" data-link-type="association"><path d="M86.39,209.409 C100.49,195.149 117.8,179.989 136,169.599 C157.96,157.059 183.77,147.859 207.87,141.219" style="stroke:#000;stroke-width:1;" fill="none" id="A1-UC55"/></g><!--link UC53 to CheckSchedule--><g class="link" data-entity-1="ent0004" data-entity-2="ent0012" id="lnk13" data-source-line="37" data-link-type="dependency"><path d="M419.99,305.229 C465.89,305.809 510.18,306.376 546.63,306.836" style="stroke:#000;stroke-width:1;stroke-dasharray:7,7;" fill="none" id="UC53-to-CheckSchedule"/><polygon points="551.63,306.899,542.681,302.785,546.63,306.836,542.58,310.785,551.63,306.899" fill="#000" style="stroke:#000;stroke-width:1;stroke-linejoin:miter;stroke-miterlimit:10;"/><text x="453" y="301.606" fill="#000" font-size="16" textLength="68.5" font-family="Arial">«include»</text></g><!--link UC54 to CheckShift--><g class="link" data-entity-1="ent0005" data-entity-2="ent0014" id="lnk15" data-source-line="38" data-link-type="dependency"><path d="M364.56,217.099 C410.04,218.319 469.56,218.209 522,212.599 C537.6,210.929 549.673,208.752 564.303,205.442" style="stroke:#000;stroke-width:1;stroke-dasharray:7,7;" fill="none" id="UC54-to-CheckShift"/><polygon points="569.18,204.339,559.519,202.423,564.303,205.442,561.285,210.226,569.18,204.339" fill="#000" style="stroke:#000;stroke-width:1;stroke-linejoin:miter;stroke-miterlimit:10;"/><text x="453" y="208.606" fill="#000" font-size="16" textLength="68.5" font-family="Arial">«include»</text></g><!--link UC55 to CheckShift--><g class="link" data-entity-1="ent0006" data-entity-2="ent0014" id="lnk16" data-source-line="39" data-link-type="dependency"><path d="M368.3,142.479 C432.07,156.399 514.925,174.492 564.335,185.282" style="stroke:#000;stroke-width:1;stroke-dasharray:7,7;" fill="none" id="UC55-to-CheckShift"/><polygon points="569.22,186.349,561.281,180.521,564.335,185.282,559.574,188.336,569.22,186.349" fill="#000" style="stroke:#000;stroke-width:1;stroke-linejoin:miter;stroke-miterlimit:10;"/><text x="453" y="158.606" fill="#000" font-size="16" textLength="68.5" font-family="Arial">«include»</text></g><!--link UC55 to Reconcile--><g class="link" data-entity-1="ent0006" data-entity-2="ent0017" id="lnk18" data-source-line="40" data-link-type="dependency"><path d="M380.29,113.169 C444.35,104.249 522.168,93.407 567.898,87.047" style="stroke:#000;stroke-width:1;stroke-dasharray:7,7;" fill="none" id="UC55-to-Reconcile"/><polygon points="572.85,86.359,563.385,83.637,567.898,87.047,564.487,91.56,572.85,86.359" fill="#000" style="stroke:#000;stroke-width:1;stroke-linejoin:miter;stroke-miterlimit:10;"/><text x="453" y="91.606" fill="#000" font-size="16" textLength="68.5" font-family="Arial">«include»</text></g><?plantuml-src ZLEnRXD14Etz5IFtjcB51m95bXoZ11HX0R51aTmiUsllo7kxOM_F9g0K20cADAIWHB99XqI1HEKhA8uVkJzXrexZisEaDAkxUM_UpBwPTUYKWFlLsWEeG3SMq69qF9FPTmqy-wq7CCecu6IU_k8WCKy_Kvo1oYOHZFmlByL3rAVCiWWYemsNraG2d4r40Oab2yqOIQxFL5n4NZC-75YJwB1bbB4mbkYAU2ZwB57km6ZNPYJSjCZKTlmOtmcetIk0JMlDUA6xhwXG0MBSuGZT6Rml0UnlDF5gtWJ5ZGs5BGe0F496zmp_bxA4RsKciU3Us_8HsVOn8eSOwBdF8yn-w9vU6lqDOO3Csrm65aDB2ZuyvbA4YH9RLTuaPtdwOQbWyzcKV7Ooc-AwXiI-MmbqylGhyQZWrIc4Xcb9EScrIFQJVhcalYGeFsKvrtaXkD4SgO_pud3762ccnSBABPPr_99jDUmuCaClLbAYxy0Pi3YG3aAqWkPZz9rMQFkAq82fIhczidX-XURE4dcUvBChxGrBBug4MiaNPtf03wFyE4y_GOVEB-r3E3nv-kJWf4ptl76nswe4kpsz-M3UYiZxTi5byQdCzRkjO7SzlzxJBxE9sNXNIt9zdHpqz54---CysrVwUvcdbmYnoQPa8Ff5M6O6P6op1fNAecPpv_gplehMLz5W5GrAFW6grSRwzi53sDj3pLKIYaR3a-e5ab-lsupWZeoRrLed_0C0?></g></svg>