<svg xmlns="http://www.w3.org/2000/svg" width="1400" height="740" viewBox="0 0 1400 740">
<rect width="100%" height="100%" fill="white"/>
<text x="700.0" y="30.0" text-anchor="middle" dominant-baseline="middle" font-family="Arial, sans-serif" font-size="23" font-weight="700" fill="#111">7.19 - Use Case Phân công và thực hiện ca làm việc</text>
<rect x="35" y="240" width="1330" height="465" rx="3" fill="white" stroke="#222" stroke-width="1.3"/>
<text x="700" y="270.0" text-anchor="middle" dominant-baseline="middle" font-family="Arial, sans-serif" font-size="25" font-weight="700" fill="#111">HỆ THỐNG GYMIFY</text>
<circle cx="220" cy="70" r="14" fill="#f4f4f4" stroke="#222"/>
<polyline points="220,84 220,132" fill="none" stroke="#222" stroke-width="1.4"/>
<polyline points="195,100 245,100" fill="none" stroke="#222" stroke-width="1.4"/>
<polyline points="220,132 195,163" fill="none" stroke="#222" stroke-width="1.4"/>
<polyline points="220,132 245,163" fill="none" stroke="#222" stroke-width="1.4"/>
<text x="220" y="187.0" text-anchor="middle" dominant-baseline="middle" font-family="Arial, sans-serif" font-size="18" font-weight="400" fill="#111">Quản trị viên</text>
<circle cx="1160" cy="70" r="14" fill="#f4f4f4" stroke="#222"/>
<polyline points="1160,84 1160,132" fill="none" stroke="#222" stroke-width="1.4"/>
<polyline points="1135,100 1185,100" fill="none" stroke="#222" stroke-width="1.4"/>
<polyline points="1160,132 1135,163" fill="none" stroke="#222" stroke-width="1.4"/>
<polyline points="1160,132 1185,163" fill="none" stroke="#222" stroke-width="1.4"/>
<text x="1160" y="187.0" text-anchor="middle" dominant-baseline="middle" font-family="Arial, sans-serif" font-size="18" font-weight="400" fill="#111">Nhân viên</text>
<polyline points="220,200 220,315 260,315 260,350" fill="none" stroke="#222" stroke-width="1.4"/>
<ellipse cx="260" cy="395" rx="180.0" ry="45.0" fill="white" stroke="#222" stroke-width="1.2"/>
<text x="260" y="371.25" text-anchor="middle" dominant-baseline="middle" font-family="Arial, sans-serif" font-size="19" font-weight="400" fill="#111">UC-53</text>
<text x="260" y="395.0" text-anchor="middle" dominant-baseline="middle" font-family="Arial, sans-serif" font-size="19" font-weight="400" fill="#111">Phân công và xem</text>
<text x="260" y="418.75" text-anchor="middle" dominant-baseline="middle" font-family="Arial, sans-serif" font-size="19" font-weight="400" fill="#111">lịch làm việc</text>
<polyline points="220,200 220,315 710,315 710,350" fill="none" stroke="#222" stroke-width="1.4"/>
<polyline points="1160,200 1160,330 710,330 710,350" fill="none" stroke="#222" stroke-width="1.4"/>
<ellipse cx="710" cy="395" rx="180.0" ry="45.0" fill="white" stroke="#222" stroke-width="1.2"/>
<text x="710" y="383.125" text-anchor="middle" dominant-baseline="middle" font-family="Arial, sans-serif" font-size="19" font-weight="400" fill="#111">UC-54</text>
<text x="710" y="406.875" text-anchor="middle" dominant-baseline="middle" font-family="Arial, sans-serif" font-size="19" font-weight="400" fill="#111">Vào ca làm việc</text>
<polyline points="220,200 220,315 1160,315 1160,350" fill="none" stroke="#222" stroke-width="1.4"/>
<polyline points="1160,200 1160,330 1160,330 1160,350" fill="none" stroke="#222" stroke-width="1.4"/>
<ellipse cx="1160" cy="395" rx="180.0" ry="45.0" fill="white" stroke="#222" stroke-width="1.2"/>
<text x="1160" y="371.25" text-anchor="middle" dominant-baseline="middle" font-family="Arial, sans-serif" font-size="19" font-weight="400" fill="#111">UC-55</text>
<text x="1160" y="395.0" text-anchor="middle" dominant-baseline="middle" font-family="Arial, sans-serif" font-size="19" font-weight="400" fill="#111">Kết ca và</text>
<text x="1160" y="418.75" text-anchor="middle" dominant-baseline="middle" font-family="Arial, sans-serif" font-size="19" font-weight="400" fill="#111">đối soát tiền</text>
<polyline points="260,440 260,560" fill="none" stroke="#222" stroke-width="1.4" stroke-dasharray="8 6"/>
<polyline points="255.9223954694043,550.8691105968769 260,560 264.0776045305957,550.8691105968769" fill="none" stroke="#222" stroke-width="1.4"/>
<text x="328" y="500.0" text-anchor="middle" dominant-baseline="middle" font-family="Arial, sans-serif" font-size="18" font-weight="400" fill="#111">«include»</text>
<ellipse cx="260" cy="600" rx="175.0" ry="40.0" fill="white" stroke="#222" stroke-width="1.2"/>
<text x="260" y="588.125" text-anchor="middle" dominant-baseline="middle" font-family="Arial, sans-serif" font-size="19" font-weight="400" fill="#111">Kiểm tra nhân viên</text>
<text x="260" y="611.875" text-anchor="middle" dominant-baseline="middle" font-family="Arial, sans-serif" font-size="19" font-weight="400" fill="#111">và thời gian ca</text>
<polyline points="710,440 710,560" fill="none" stroke="#222" stroke-width="1.4" stroke-dasharray="8 6"/>
<polyline points="705.9223954694043,550.8691105968769 710,560 714.0776045305957,550.8691105968769" fill="none" stroke="#222" stroke-width="1.4"/>
<text x="778" y="500.0" text-anchor="middle" dominant-baseline="middle" font-family="Arial, sans-serif" font-size="18" font-weight="400" fill="#111">«include»</text>
<ellipse cx="710" cy="600" rx="175.0" ry="40.0" fill="white" stroke="#222" stroke-width="1.2"/>
<text x="710" y="588.125" text-anchor="middle" dominant-baseline="middle" font-family="Arial, sans-serif" font-size="19" font-weight="400" fill="#111">Kiểm tra quyền</text>
<text x="710" y="611.875" text-anchor="middle" dominant-baseline="middle" font-family="Arial, sans-serif" font-size="19" font-weight="400" fill="#111">và trạng thái ca</text>
<polyline points="1160,440 1160,560" fill="none" stroke="#222" stroke-width="1.4" stroke-dasharray="8 6"/>
<polyline points="1155.9223954694044,550.8691105968769 1160,560 1164.0776045305956,550.8691105968769" fill="none" stroke="#222" stroke-width="1.4"/>
<text x="1228" y="500.0" text-anchor="middle" dominant-baseline="middle" font-family="Arial, sans-serif" font-size="18" font-weight="400" fill="#111">«include»</text>
<ellipse cx="1160" cy="600" rx="175.0" ry="40.0" fill="white" stroke="#222" stroke-width="1.2"/>
<text x="1160" y="588.125" text-anchor="middle" dominant-baseline="middle" font-family="Arial, sans-serif" font-size="19" font-weight="400" fill="#111">Tổng hợp doanh thu</text>
<text x="1160" y="611.875" text-anchor="middle" dominant-baseline="middle" font-family="Arial, sans-serif" font-size="19" font-weight="400" fill="#111">và tính chênh lệch</text>
<polyline points="1040,433 840,573" fill="none" stroke="#222" stroke-width="1.4" stroke-dasharray="8 6"/>
<polyline points="845.1419634082655,564.4232749660457 840,573 849.8186687152694,571.1042825474798" fill="none" stroke="#222" stroke-width="1.4"/>
<text x="995" y="525.0" text-anchor="middle" dominant-baseline="middle" font-family="Arial, sans-serif" font-size="17" font-weight="400" fill="#111">«include»</text>
</svg>