<svg xmlns="http://www.w3.org/2000/svg" xmlns:xlink="http://www.w3.org/1999/xlink" version="1.1" data-diagram-type="CLASS" style="width:645px;height:548px;background:#FFFFFF;" width="645px" height="548px" viewBox="0 0 645 548" zoomAndPan="magnify" preserveAspectRatio="none" contentStyleType="text/css"><?plantuml 1.2026.8?><defs/><g font-family="sans-serif" lengthAdjust="spacing"><g class="title" data-source-line="1"><text x="193.365" y="23.132" fill="#000" font-size="14" textLength="252.027" font-weight="700" font-family="Arial">ERD logic - 5. Sản phẩm và thuộc tính</text></g><!--class product_attribute_values--><g class="entity" data-qualified-name="product_attribute_values" id="ent0001" data-source-line="12"><rect x="467" y="218.099" width="163.758" height="74.296" fill="#F1F1F1" style="stroke:#181818;stroke-width:0.5;" rx="2.5" ry="2.5"/><text x="472.217" y="236.23" fill="#000" font-size="14" textLength="153.323" font-family="Arial">product_attribute_values</text><line x1="468" y1="244.197" x2="629.758" y2="244.197" style="stroke:#181818;stroke-width:0.5;"/><text x="473" y="261.329" fill="#000" font-size="14" textLength="151.758" font-family="Arial">attribute_id : bigint «FK»</text><text x="473" y="277.428" fill="#000" font-size="14" textLength="94.172" font-family="Arial">id : bigint «PK»</text><line x1="468" y1="284.395" x2="629.758" y2="284.395" style="stroke:#181818;stroke-width:0.5;"/></g><!--class product_attributes--><g class="entity" data-qualified-name="product_attributes" id="ent0002" data-source-line="16"><rect x="477" y="44.099" width="144.282" height="74.296" fill="#F1F1F1" style="stroke:#181818;stroke-width:0.5;" rx="2.5" ry="2.5"/><text x="493.107" y="62.23" fill="#000" font-size="14" textLength="112.068" font-family="Arial">product_attributes</text><line x1="478" y1="70.197" x2="620.282" y2="70.197" style="stroke:#181818;stroke-width:0.5;"/><text x="483" y="87.329" fill="#000" font-size="14" textLength="94.172" font-family="Arial">id : bigint «PK»</text><text x="483" y="103.428" fill="#000" font-size="14" textLength="132.282" font-family="Arial">name : varchar «UK»</text><line x1="478" y1="110.395" x2="620.282" y2="110.395" style="stroke:#181818;stroke-width:0.5;"/></g><!--class product_variants--><g class="entity" data-qualified-name="product_variants" id="ent0003" data-source-line="20"><rect x="7" y="218.099" width="159.868" height="74.296" fill="#F1F1F1" style="stroke:#181818;stroke-width:0.5;" rx="2.5" ry="2.5"/><text x="35.183" y="236.23" fill="#000" font-size="14" textLength="103.503" font-family="Arial">product_variants</text><line x1="8" y1="244.197" x2="165.868" y2="244.197" style="stroke:#181818;stroke-width:0.5;"/><text x="13" y="261.329" fill="#000" font-size="14" textLength="94.172" font-family="Arial">id : bigint «PK»</text><text x="13" y="277.428" fill="#000" font-size="14" textLength="147.868" font-family="Arial">product_id : bigint «FK»</text><line x1="8" y1="284.395" x2="165.868" y2="284.395" style="stroke:#181818;stroke-width:0.5;"/></g><!--class shop_products--><g class="entity" data-qualified-name="shop_products" id="ent0004" data-source-line="24"><rect x="55" y="52.099" width="106.172" height="58.197" fill="#F1F1F1" style="stroke:#181818;stroke-width:0.5;" rx="2.5" ry="2.5"/><text x="62.166" y="70.23" fill="#000" font-size="14" textLength="91.841" font-family="Arial">shop_products</text><line x1="56" y1="78.197" x2="160.172" y2="78.197" style="stroke:#181818;stroke-width:0.5;"/><text x="61" y="95.329" fill="#000" font-size="14" textLength="94.172" font-family="Arial">id : bigint «PK»</text><line x1="56" y1="102.296" x2="160.172" y2="102.296" style="stroke:#181818;stroke-width:0.5;"/></g><!--class variant_attribute_values--><g class="entity" data-qualified-name="variant_attribute_values" id="ent0005" data-source-line="27"><rect x="221.5" y="392.099" width="193.33" height="74.296" fill="#F1F1F1" style="stroke:#181818;stroke-width:0.5;" rx="2.5" ry="2.5"/><text x="243.841" y="410.23" fill="#000" font-size="14" textLength="148.647" font-family="Arial">variant_attribute_values</text><line x1="222.5" y1="418.197" x2="413.83" y2="418.197" style="stroke:#181818;stroke-width:0.5;"/><text x="227.5" y="435.329" fill="#000" font-size="14" textLength="172.778" font-family="Arial">value_id : bigint «PK» «FK»</text><text x="227.5" y="451.428" fill="#000" font-size="14" textLength="181.33" font-family="Arial">variant_id : bigint «PK» «FK»</text><line x1="222.5" y1="458.395" x2="413.83" y2="458.395" style="stroke:#181818;stroke-width:0.5;"/></g><!--class voucher_scope_products--><g class="entity" data-qualified-name="voucher_scope_products" id="ent0006" data-source-line="31"><rect x="232" y="218.099" width="169.979" height="74.296" fill="#F1F1F1" style="stroke:#181818;stroke-width:0.5;" rx="2.5" ry="2.5"/><text x="238.772" y="236.23" fill="#000" font-size="14" textLength="156.434" font-family="Arial">voucher_scope_products</text><line x1="233" y1="244.197" x2="400.979" y2="244.197" style="stroke:#181818;stroke-width:0.5;"/><text x="238" y="261.329" fill="#000" font-size="14" textLength="157.979" font-family="Arial">product_id : bigint «REF»</text><text x="238" y="277.428" fill="#000" font-size="14" textLength="150.979" font-family="Arial">voucher_id : bigint «FK»</text><line x1="233" y1="284.395" x2="400.979" y2="284.395" style="stroke:#181818;stroke-width:0.5;"/></g><!--class vouchers--><g class="entity" data-qualified-name="vouchers" id="ent0007" data-source-line="35"><rect x="247" y="44.099" width="139.62" height="74.296" fill="#F1F1F1" style="stroke:#181818;stroke-width:0.5;" rx="2.5" ry="2.5"/><text x="288.407" y="62.23" fill="#000" font-size="14" textLength="56.807" font-family="Arial">vouchers</text><line x1="248" y1="70.197" x2="385.62" y2="70.197" style="stroke:#181818;stroke-width:0.5;"/><text x="253" y="87.329" fill="#000" font-size="14" textLength="94.172" font-family="Arial">id : bigint «PK»</text><text x="253" y="103.428" fill="#000" font-size="14" textLength="127.62" font-family="Arial">code : varchar «UK»</text><line x1="248" y1="110.395" x2="385.62" y2="110.395" style="stroke:#181818;stroke-width:0.5;"/></g><!--link product_attributes to product_attribute_values--><g class="link" data-entity-1="ent0002" data-entity-2="ent0001" id="lnk8" data-source-line="39" data-link-type="crowfoot"><path d="M549,133.159 C549,162.509 549,170.749 549,200.089" style="stroke:#181818;stroke-width:1;" fill="none" id="product_attributes-product_attribute_values" codeLine="39"/><line x1="549" y1="129.159" x2="549" y2="118.159" style="stroke:#181818;stroke-width:1;"/><ellipse cx="549" cy="129.159" rx="4" ry="4" fill="none" style="stroke:#181818;stroke-width:1;"/><line x1="545" y1="122.159" x2="553" y2="122.159" style="stroke:#181818;stroke-width:1;"/><line x1="549" y1="210.089" x2="555" y2="218.089" style="stroke:#181818;stroke-width:1;"/><line x1="549" y1="210.089" x2="543" y2="218.089" style="stroke:#181818;stroke-width:1;"/><line x1="549" y1="210.089" x2="549" y2="218.089" style="stroke:#181818;stroke-width:1;"/><ellipse cx="549" cy="204.089" rx="4" ry="4" fill="none" style="stroke:#181818;stroke-width:1;"/></g><!--link shop_products to product_variants--><g class="link" data-entity-1="ent0004" data-entity-2="ent0003" id="lnk9" data-source-line="40" data-link-type="crowfoot"><path d="M102.762,125.008 C99.172,154.418 97.51,168.021 93.59,200.151" style="stroke:#181818;stroke-width:1;" fill="none" id="shop_products-product_variants" codeLine="40"/><line x1="103.247" y1="121.038" x2="104.58" y2="110.119" style="stroke:#181818;stroke-width:1;"/><ellipse cx="103.247" cy="121.038" rx="4" ry="4" fill="none" style="stroke:#181818;stroke-width:1;"/><line x1="100.125" y1="113.604" x2="108.066" y2="114.574" style="stroke:#181818;stroke-width:1;"/><line x1="92.379" y1="210.078" x2="97.366" y2="218.745" style="stroke:#181818;stroke-width:1;"/><line x1="92.379" y1="210.078" x2="85.454" y2="217.292" style="stroke:#181818;stroke-width:1;"/><line x1="92.379" y1="210.078" x2="91.41" y2="218.019" style="stroke:#181818;stroke-width:1;"/><ellipse cx="93.105" cy="204.122" rx="4" ry="4" fill="none" style="stroke:#181818;stroke-width:1;"/></g><!--link product_attribute_values to variant_attribute_values--><g class="link" data-entity-1="ent0001" data-entity-2="ent0005" id="lnk10" data-source-line="41" data-link-type="crowfoot"><path d="M494.153,296.936 C454.733,326.286 420.208,352 380.798,381.34" style="stroke:#181818;stroke-width:1;" fill="none" id="product_attribute_values-variant_attribute_values" codeLine="41"/><line x1="494.973" y1="291.339" x2="499.75" y2="297.756" style="stroke:#181818;stroke-width:1;"/><line x1="492.567" y1="293.131" x2="497.344" y2="299.547" style="stroke:#181818;stroke-width:1;"/><line x1="494.153" y1="296.936" x2="500.57" y2="292.159" style="stroke:#181818;stroke-width:1;"/><line x1="372.777" y1="387.311" x2="369.943" y2="396.901" style="stroke:#181818;stroke-width:1;"/><line x1="372.777" y1="387.311" x2="362.777" y2="387.276" style="stroke:#181818;stroke-width:1;"/><line x1="372.777" y1="387.311" x2="366.36" y2="392.089" style="stroke:#181818;stroke-width:1;"/><ellipse cx="377.59" cy="383.728" rx="4" ry="4" fill="none" style="stroke:#181818;stroke-width:1;"/></g><!--link product_variants to variant_attribute_values--><g class="link" data-entity-1="ent0003" data-entity-2="ent0005" id="lnk11" data-source-line="42" data-link-type="crowfoot"><path d="M141.847,296.936 C181.267,326.286 215.792,352 255.202,381.34" style="stroke:#181818;stroke-width:1;" fill="none" id="product_variants-variant_attribute_values" codeLine="42"/><line x1="136.25" y1="297.756" x2="141.027" y2="291.339" style="stroke:#181818;stroke-width:1;"/><line x1="138.656" y1="299.547" x2="143.433" y2="293.131" style="stroke:#181818;stroke-width:1;"/><line x1="141.847" y1="296.936" x2="135.43" y2="292.159" style="stroke:#181818;stroke-width:1;"/><line x1="263.223" y1="387.311" x2="273.223" y2="387.276" style="stroke:#181818;stroke-width:1;"/><line x1="263.223" y1="387.311" x2="266.057" y2="396.901" style="stroke:#181818;stroke-width:1;"/><line x1="263.223" y1="387.311" x2="269.64" y2="392.089" style="stroke:#181818;stroke-width:1;"/><ellipse cx="258.41" cy="383.728" rx="4" ry="4" fill="none" style="stroke:#181818;stroke-width:1;"/></g><!--link vouchers to voucher_scope_products--><g class="link" data-entity-1="ent0007" data-entity-2="ent0006" id="lnk12" data-source-line="43" data-link-type="crowfoot"><path d="M317,126.159 C317,155.509 317,170.749 317,200.089" style="stroke:#181818;stroke-width:1;" fill="none" id="vouchers-voucher_scope_products" codeLine="43"/><line x1="313" y1="122.159" x2="321" y2="122.159" style="stroke:#181818;stroke-width:1;"/><line x1="313" y1="125.159" x2="321" y2="125.159" style="stroke:#181818;stroke-width:1;"/><line x1="317" y1="126.159" x2="317" y2="118.159" style="stroke:#181818;stroke-width:1;"/><line x1="317" y1="210.089" x2="323" y2="218.089" style="stroke:#181818;stroke-width:1;"/><line x1="317" y1="210.089" x2="311" y2="218.089" style="stroke:#181818;stroke-width:1;"/><line x1="317" y1="210.089" x2="317" y2="218.089" style="stroke:#181818;stroke-width:1;"/><ellipse cx="317" cy="204.089" rx="4" ry="4" fill="none" style="stroke:#181818;stroke-width:1;"/></g><!--link shop_products to voucher_scope_products--><g class="link" data-entity-1="ent0004" data-entity-2="ent0006" id="lnk13" data-source-line="44" data-link-type="crowfoot"><path d="M153.624,119.648 C189.374,149.058 220.21,174.452 259.26,206.582" style="stroke:#181818;stroke-width:1;stroke-dasharray:7,7;" fill="none" id="shop_products-voucher_scope_products" codeLine="44"/><line x1="150.535" y1="117.107" x2="142.04" y2="110.119" style="stroke:#181818;stroke-width:1;"/><ellipse cx="150.535" cy="117.107" rx="4" ry="4" fill="none" style="stroke:#181818;stroke-width:1;"/><line x1="142.588" y1="115.749" x2="147.67" y2="109.571" style="stroke:#181818;stroke-width:1;"/><line x1="266.982" y1="212.936" x2="276.972" y2="213.385" style="stroke:#181818;stroke-width:1;"/><line x1="266.982" y1="212.936" x2="269.348" y2="222.652" style="stroke:#181818;stroke-width:1;"/><line x1="266.982" y1="212.936" x2="273.16" y2="218.019" style="stroke:#181818;stroke-width:1;"/><ellipse cx="262.349" cy="209.123" rx="4" ry="4" fill="none" style="stroke:#181818;stroke-width:1;"/></g><g class="legend" data-source-line="45"><rect x="138.179" y="487.395" width="362.399" height="42.197" fill="none" style="stroke:#000;stroke-width:1;" rx="7.5" ry="7.5"/><text x="143.179" y="505.526" fill="#000" font-size="14" textLength="337.764" font-family="Arial">Liền: FK hiện có. Nét đứt / REF: liên kết logic bổ sung.</text><text x="143.179" y="521.625" fill="#000" font-size="14" textLength="352.399" font-family="Arial">Bảng cùng tên ở các hình là cùng một bảng trong CSDL.</text></g><?plantuml-src XLGzRzim4DtrAmxPhIP0qy480hH9l2G8YXYT3PfYHC8qJw1E3jouGwVE7JfqQejE2TgfK-mXW_f7z4zAMN8jrMAwwEFUktl7k-EH8YtWxEeKDCQAGmyEGnWMo-y64baixwOmoxy2oQnOVUP0-KyZ0waY0LnPhaMGJfH9c6LJcA91BYrE1P3DciYOyKbiCJFH2MgqS2CLDV5KiWXlb8dXckcqYKJYccMQ1cZeahd0BwrYkXiVghS23futGAsCe7aY844zBtyQcC58f2A15uSDesLcKXeFzlS3mWG8OOn4w7IK5PmKca0OKZI7lSHYb74QCIAhnXc9qOpfJAHxm5BmWN0R06oDAe8-Z5Mi3C7HqU3y-DZ1RUFhqlZEh-hHgvGwGW6Oievzc37B9RFE_gPRmX4KCzGMs1ZzuJVCZhDjDLA9oQXcLW8jYo_wDa2THtVrVU0wxFfpj1jysu2Dkv_Jo0CpBeKTfHmJqJvHDxJEeRj6LsU3IhzsVBA2DQabzKHNk1lthgPt3Cu2UpsyzOvmqExKF-pDV0JU6x1Oh1ryFGfs9kr_3dyFlo5srdqdxJ3qSxM8XOdgk--gTw6ArNlJXy4vIFVvmG3FVuLmcTyH_FvOhDph6RZszTtAoUyDJ8hb8zNxT5oiFa6QcJXqWLwLUpLstW_kIIMrM7rnlzyuoFo7aQ3ThgtGgTktvBpN3cJHFK-6fnUXcu2eokyF?></g></svg>