<svg xmlns="http://www.w3.org/2000/svg" xmlns:xlink="http://www.w3.org/1999/xlink" version="1.1" data-diagram-type="CLASS" style="width:719px;height:895px;background:#FFFFFF;" width="719px" height="895px" viewBox="0 0 719 895" zoomAndPan="magnify" preserveAspectRatio="none" contentStyleType="text/css"><?plantuml 1.2026.8?><defs/><g font-family="sans-serif" lengthAdjust="spacing"><g class="title" data-source-line="1"><text x="208.748" y="23.132" fill="#000" font-size="14" textLength="294.82" font-weight="700" font-family="Arial">ERD logic - 1. Tài khoản và theo dõi thể chất</text></g><!--class chat_messages--><g class="entity" data-qualified-name="chat_messages" id="ent0001" data-source-line="12"><rect x="544.5" y="44.099" width="140.406" height="74.296" fill="#F1F1F1" style="stroke:#181818;stroke-width:0.5;" rx="2.5" ry="2.5"/><text x="565.676" y="62.23" fill="#000" font-size="14" textLength="98.055" font-family="Arial">chat_messages</text><line x1="545.5" y1="70.197" x2="683.906" y2="70.197" style="stroke:#181818;stroke-width:0.5;"/><text x="550.5" y="87.329" fill="#000" font-size="14" textLength="94.172" font-family="Arial">id : bigint «PK»</text><text x="550.5" y="103.428" fill="#000" font-size="14" textLength="128.406" font-family="Arial">user_id : bigint «FK»</text><line x1="545.5" y1="110.395" x2="683.906" y2="110.395" style="stroke:#181818;stroke-width:0.5;"/></g><!--class endurance_tests--><g class="entity" data-qualified-name="endurance_tests" id="ent0002" data-source-line="16"><rect x="525" y="183.099" width="179.316" height="74.296" fill="#F1F1F1" style="stroke:#181818;stroke-width:0.5;" rx="2.5" ry="2.5"/><text x="562.9" y="201.23" fill="#000" font-size="14" textLength="103.517" font-family="Arial">endurance_tests</text><line x1="526" y1="209.197" x2="703.316" y2="209.197" style="stroke:#181818;stroke-width:0.5;"/><text x="531" y="226.329" fill="#000" font-size="14" textLength="94.172" font-family="Arial">id : bigint «PK»</text><text x="531" y="242.428" fill="#000" font-size="14" textLength="167.316" font-family="Arial">user_id : bigint «FK» «UK»</text><line x1="526" y1="249.395" x2="703.316" y2="249.395" style="stroke:#181818;stroke-width:0.5;"/></g><!--class notifications--><g class="entity" data-qualified-name="notifications" id="ent0003" data-source-line="20"><rect x="544.5" y="322.099" width="140.406" height="74.296" fill="#F1F1F1" style="stroke:#181818;stroke-width:0.5;" rx="2.5" ry="2.5"/><text x="577.738" y="340.23" fill="#000" font-size="14" textLength="73.931" font-family="Arial">notifications</text><line x1="545.5" y1="348.197" x2="683.906" y2="348.197" style="stroke:#181818;stroke-width:0.5;"/><text x="550.5" y="365.329" fill="#000" font-size="14" textLength="94.172" font-family="Arial">id : bigint «PK»</text><text x="550.5" y="381.428" fill="#000" font-size="14" textLength="128.406" font-family="Arial">user_id : bigint «FK»</text><line x1="545.5" y1="388.395" x2="683.906" y2="388.395" style="stroke:#181818;stroke-width:0.5;"/></g><!--class progress_tracking--><g class="entity" data-qualified-name="progress_tracking" id="ent0004" data-source-line="24"><rect x="544.5" y="461.099" width="140.406" height="74.296" fill="#F1F1F1" style="stroke:#181818;stroke-width:0.5;" rx="2.5" ry="2.5"/><text x="559.065" y="479.23" fill="#000" font-size="14" textLength="111.275" font-family="Arial">progress_tracking</text><line x1="545.5" y1="487.197" x2="683.906" y2="487.197" style="stroke:#181818;stroke-width:0.5;"/><text x="550.5" y="504.329" fill="#000" font-size="14" textLength="94.172" font-family="Arial">id : bigint «PK»</text><text x="550.5" y="520.428" fill="#000" font-size="14" textLength="128.406" font-family="Arial">user_id : bigint «FK»</text><line x1="545.5" y1="527.395" x2="683.906" y2="527.395" style="stroke:#181818;stroke-width:0.5;"/></g><!--class roles--><g class="entity" data-qualified-name="roles" id="ent0005" data-source-line="28"><rect x="7" y="392.099" width="175.413" height="74.296" fill="#F1F1F1" style="stroke:#181818;stroke-width:0.5;" rx="2.5" ry="2.5"/><text x="79.534" y="410.23" fill="#000" font-size="14" textLength="30.345" font-family="Arial">roles</text><line x1="8" y1="418.197" x2="181.413" y2="418.197" style="stroke:#181818;stroke-width:0.5;"/><text x="13" y="435.329" fill="#000" font-size="14" textLength="94.172" font-family="Arial">id : bigint «PK»</text><text x="13" y="451.428" fill="#000" font-size="14" textLength="163.413" font-family="Arial">role_name : varchar «UK»</text><line x1="8" y1="458.395" x2="181.413" y2="458.395" style="stroke:#181818;stroke-width:0.5;"/></g><!--class service_ratings--><g class="entity" data-qualified-name="service_ratings" id="ent0006" data-source-line="32"><rect x="544.5" y="600.099" width="140.406" height="74.296" fill="#F1F1F1" style="stroke:#181818;stroke-width:0.5;" rx="2.5" ry="2.5"/><text x="567.627" y="618.23" fill="#000" font-size="14" textLength="94.151" font-family="Arial">service_ratings</text><line x1="545.5" y1="626.197" x2="683.906" y2="626.197" style="stroke:#181818;stroke-width:0.5;"/><text x="550.5" y="643.329" fill="#000" font-size="14" textLength="94.172" font-family="Arial">id : bigint «PK»</text><text x="550.5" y="659.428" fill="#000" font-size="14" textLength="128.406" font-family="Arial">user_id : bigint «FK»</text><line x1="545.5" y1="666.395" x2="683.906" y2="666.395" style="stroke:#181818;stroke-width:0.5;"/></g><!--class user_profiles--><g class="entity" data-qualified-name="user_profiles" id="ent0007" data-source-line="36"><rect x="525" y="739.099" width="179.316" height="74.296" fill="#F1F1F1" style="stroke:#181818;stroke-width:0.5;" rx="2.5" ry="2.5"/><text x="574.583" y="757.23" fill="#000" font-size="14" textLength="80.151" font-family="Arial">user_profiles</text><line x1="526" y1="765.197" x2="703.316" y2="765.197" style="stroke:#181818;stroke-width:0.5;"/><text x="531" y="782.329" fill="#000" font-size="14" textLength="94.172" font-family="Arial">id : bigint «PK»</text><text x="531" y="798.428" fill="#000" font-size="14" textLength="167.316" font-family="Arial">user_id : bigint «FK» «UK»</text><line x1="526" y1="805.395" x2="703.316" y2="805.395" style="stroke:#181818;stroke-width:0.5;"/></g><!--class users--><g class="entity" data-qualified-name="users" id="ent0008" data-source-line="40"><rect x="282" y="384.099" width="142.717" height="90.395" fill="#F1F1F1" style="stroke:#181818;stroke-width:0.5;" rx="2.5" ry="2.5"/><text x="336.241" y="402.23" fill="#000" font-size="14" textLength="34.234" font-family="Arial">users</text><line x1="283" y1="410.197" x2="423.717" y2="410.197" style="stroke:#181818;stroke-width:0.5;"/><text x="288" y="427.329" fill="#000" font-size="14" textLength="94.172" font-family="Arial">id : bigint «PK»</text><text x="288" y="443.428" fill="#000" font-size="14" textLength="124.517" font-family="Arial">role_id : bigint «FK»</text><text x="288" y="459.526" fill="#000" font-size="14" textLength="130.717" font-family="Arial">email : varchar «UK»</text><line x1="283" y1="466.493" x2="423.717" y2="466.493" style="stroke:#181818;stroke-width:0.5;"/></g><!--link users to chat_messages--><g class="link" data-entity-1="ent0008" data-entity-2="ent0001" id="lnk9" data-source-line="45" data-link-type="crowfoot"><path d="M389.903,371.16 C438.163,292.2 525,150.099 525,150.099 C525,150.099 530.733,145.625 551.683,129.295" style="stroke:#181818;stroke-width:1;" fill="none" id="users-chat_messages" codeLine="45"/><line x1="387.817" y1="374.573" x2="382.08" y2="383.959" style="stroke:#181818;stroke-width:1;"/><ellipse cx="387.817" cy="374.573" rx="4" ry="4" fill="none" style="stroke:#181818;stroke-width:1;"/><line x1="387.579" y1="382.632" x2="380.753" y2="378.46" style="stroke:#181818;stroke-width:1;"/><line x1="559.57" y1="123.147" x2="562.191" y2="113.496" style="stroke:#181818;stroke-width:1;"/><line x1="559.57" y1="123.147" x2="569.569" y2="122.961" style="stroke:#181818;stroke-width:1;"/><line x1="559.57" y1="123.147" x2="565.88" y2="118.229" style="stroke:#181818;stroke-width:1;"/><ellipse cx="554.838" cy="126.835" rx="4" ry="4" fill="none" style="stroke:#181818;stroke-width:1;"/></g><!--link users to endurance_tests--><g class="link" data-entity-1="ent0008" data-entity-2="ent0002" id="lnk10" data-source-line="46" data-link-type="association"><path d="M415.573,378.952 C465.413,338.032 525,289.099 525,289.099 C525,289.099 533.099,282.78 554.049,266.45" style="stroke:#181818;stroke-width:1;" fill="none" id="users-endurance_tests" codeLine="46"/><line x1="415.02" y1="384.582" x2="409.943" y2="378.399" style="stroke:#181818;stroke-width:1;"/><line x1="417.338" y1="382.678" x2="412.262" y2="376.495" style="stroke:#181818;stroke-width:1;"/><line x1="415.573" y1="378.952" x2="409.39" y2="384.029" style="stroke:#181818;stroke-width:1;"/><line x1="557.204" y1="263.991" x2="565.88" y2="257.229" style="stroke:#181818;stroke-width:1;"/><ellipse cx="557.204" cy="263.991" rx="4" ry="4" fill="none" style="stroke:#181818;stroke-width:1;"/><line x1="560.266" y1="256.533" x2="565.184" y2="262.843" style="stroke:#181818;stroke-width:1;"/></g><!--link users to notifications--><g class="link" data-entity-1="ent0008" data-entity-2="ent0003" id="lnk11" data-source-line="47" data-link-type="crowfoot"><path d="M439.75,406.055 C476.75,396.055 489.993,392.474 526.783,382.534" style="stroke:#181818;stroke-width:1;" fill="none" id="users-notifications" codeLine="47"/><line x1="435.889" y1="407.099" x2="425.27" y2="409.969" style="stroke:#181818;stroke-width:1;"/><ellipse cx="435.889" cy="407.099" rx="4" ry="4" fill="none" style="stroke:#181818;stroke-width:1;"/><line x1="430.175" y1="412.786" x2="428.088" y2="405.064" style="stroke:#181818;stroke-width:1;"/><line x1="536.437" y1="379.925" x2="542.595" y2="372.046" style="stroke:#181818;stroke-width:1;"/><line x1="536.437" y1="379.925" x2="545.725" y2="383.631" style="stroke:#181818;stroke-width:1;"/><line x1="536.437" y1="379.925" x2="544.16" y2="377.839" style="stroke:#181818;stroke-width:1;"/><ellipse cx="530.645" cy="381.49" rx="4" ry="4" fill="none" style="stroke:#181818;stroke-width:1;"/></g><!--link users to progress_tracking--><g class="link" data-entity-1="ent0008" data-entity-2="ent0004" id="lnk12" data-source-line="48" data-link-type="crowfoot"><path d="M439.764,451.811 C476.764,461.671 489.977,465.195 526.767,474.995" style="stroke:#181818;stroke-width:1;" fill="none" id="users-progress_tracking" codeLine="48"/><line x1="435.899" y1="450.781" x2="425.27" y2="447.949" style="stroke:#181818;stroke-width:1;"/><ellipse cx="435.899" cy="450.781" rx="4" ry="4" fill="none" style="stroke:#181818;stroke-width:1;"/><line x1="428.105" y1="452.844" x2="430.165" y2="445.114" style="stroke:#181818;stroke-width:1;"/><line x1="536.43" y1="477.569" x2="545.704" y2="473.831" style="stroke:#181818;stroke-width:1;"/><line x1="536.43" y1="477.569" x2="542.616" y2="485.426" style="stroke:#181818;stroke-width:1;"/><line x1="536.43" y1="477.569" x2="544.16" y2="479.629" style="stroke:#181818;stroke-width:1;"/><ellipse cx="530.632" cy="476.025" rx="4" ry="4" fill="none" style="stroke:#181818;stroke-width:1;"/></g><!--link users to service_ratings--><g class="link" data-entity-1="ent0008" data-entity-2="ent0006" id="lnk13" data-source-line="49" data-link-type="crowfoot"><path d="M421.485,483.708 C471.265,524.298 525,568.099 525,568.099 C525,568.099 530.733,572.573 551.683,588.903" style="stroke:#181818;stroke-width:1;" fill="none" id="users-service_ratings" codeLine="49"/><line x1="418.385" y1="481.18" x2="409.86" y2="474.229" style="stroke:#181818;stroke-width:1;"/><ellipse cx="418.385" cy="481.18" rx="4" ry="4" fill="none" style="stroke:#181818;stroke-width:1;"/><line x1="410.432" y1="479.856" x2="415.488" y2="473.656" style="stroke:#181818;stroke-width:1;"/><line x1="559.57" y1="595.05" x2="569.569" y2="595.236" style="stroke:#181818;stroke-width:1;"/><line x1="559.57" y1="595.05" x2="562.191" y2="604.701" style="stroke:#181818;stroke-width:1;"/><line x1="559.57" y1="595.05" x2="565.88" y2="599.969" style="stroke:#181818;stroke-width:1;"/><ellipse cx="554.838" cy="591.362" rx="4" ry="4" fill="none" style="stroke:#181818;stroke-width:1;"/></g><!--link users to user_profiles--><g class="link" data-entity-1="ent0008" data-entity-2="ent0007" id="lnk14" data-source-line="50" data-link-type="association"><path d="M390.113,487.165 C438.433,565.945 525,707.099 525,707.099 C525,707.099 533.099,713.417 554.049,729.747" style="stroke:#181818;stroke-width:1;" fill="none" id="users-user_profiles" codeLine="50"/><line x1="388.021" y1="483.755" x2="382.27" y2="474.379" style="stroke:#181818;stroke-width:1;"/><ellipse cx="388.021" cy="483.755" rx="4" ry="4" fill="none" style="stroke:#181818;stroke-width:1;"/><line x1="380.952" y1="479.88" x2="387.771" y2="475.697" style="stroke:#181818;stroke-width:1;"/><line x1="557.204" y1="732.206" x2="565.88" y2="738.969" style="stroke:#181818;stroke-width:1;"/><ellipse cx="557.204" cy="732.206" rx="4" ry="4" fill="none" style="stroke:#181818;stroke-width:1;"/><line x1="565.184" y1="733.355" x2="560.266" y2="739.664" style="stroke:#181818;stroke-width:1;"/></g><!--link roles to users--><g class="link" data-entity-1="ent0005" data-entity-2="ent0008" id="lnk15" data-source-line="51" data-link-type="crowfoot"><path d="M197.15,429.099 C229.5,429.099 232.82,429.099 263.59,429.099" style="stroke:#181818;stroke-width:1;" fill="none" id="roles-users" codeLine="51"/><line x1="193.15" y1="429.099" x2="182.15" y2="429.099" style="stroke:#181818;stroke-width:1;"/><ellipse cx="193.15" cy="429.099" rx="4" ry="4" fill="none" style="stroke:#181818;stroke-width:1;"/><line x1="186.15" y1="433.099" x2="186.15" y2="425.099" style="stroke:#181818;stroke-width:1;"/><line x1="273.59" y1="429.099" x2="281.59" y2="423.099" style="stroke:#181818;stroke-width:1;"/><line x1="273.59" y1="429.099" x2="281.59" y2="435.099" style="stroke:#181818;stroke-width:1;"/><line x1="273.59" y1="429.099" x2="281.59" y2="429.099" style="stroke:#181818;stroke-width:1;"/><ellipse cx="267.59" cy="429.099" rx="4" ry="4" fill="none" style="stroke:#181818;stroke-width:1;"/></g><g class="legend" data-source-line="52"><rect x="174.958" y="834.395" width="362.399" height="42.197" fill="none" style="stroke:#000;stroke-width:1;" rx="7.5" ry="7.5"/><text x="179.958" y="852.526" fill="#000" font-size="14" textLength="337.764" font-family="Arial">Liền: FK hiện có. Nét đứt / REF: liên kết logic bổ sung.</text><text x="179.958" y="868.625" fill="#000" font-size="14" textLength="352.399" font-family="Arial">Bảng cùng tên ở các hình là cùng một bảng trong CSDL.</text></g><?plantuml-src hLI_RzD05DxzLpnrJsWaO8YgIj0sIwiAjJ1Rb_F5zvJpNNH-JXKQ1iJ0pC30H15Y0B4X1kA1mVmZ_azuZbEmao24mkAx-xvxtxrVVeHa59nS78DnCKheGAyBZuiRXB5svUAzXMbn0wILWwZuYhmhynSWTRduG876I854BuqAqZ7QYV0YWSHP9xLtYGBoMPCP2ZcElSjiTEICyt2baPfygaNahj36C18cRJAH6edCqC1PEXSi_C2ZCDlvItoge7UtGHgqYcOJ1HDdPjMXmLaNgLHDuFwz1kY57LTWRty_C6f4G0uynfeWGgyaeRE1ieGqWpsf1OM9IbCHgtGFH0ej1Au308oW3qECqH8S73mwFJnaC4kL3zlCe6AU_P9MDihO5Qb2KYdLuclOFylpygJzYdM48vIYYgf-euNi4i34kzXp8aBoN7ckwr9-0ztb2U_CAktBtP-bAZgqLU_qOIey5yblveAVcoBdrdFiDgvrrx1Td5tUuF17UEjq2_aFnQmk_bR-MpgsE0kW4e5cMv9gnRdhTDnrkyblgJbJy_KMRTkrUgjDRVH5crwhGvESj_COrAsmiblUuzyuPhzWw8XSmb6UOPa_jtqOd8BcxKiBilZIXVFY8y6FLsNEonsuE1dqUNeKdooCoyLtMit8OPc_XZIpSPU57bP3CcRhR_obwcgPl-NZEmcw-6mr69wVDPkK-HjYwwK1USVVeylZiovNBwhz-ma0?></g></svg>